<?xml version="1.0" encoding="iso-8859-1"?>
<!-- Generator: Adobe Illustrator 19.0.0, SVG Export Plug-In . SVG Version: 6.00 Build 0)  -->
<svg version="1.1" id="Capa_1" xmlns="http://www.w3.org/2000/svg" xmlns:xlink="http://www.w3.org/1999/xlink" x="0px" y="0px"
	 viewBox="0 0 512.001 512.001" style="enable-background:new 0 0 512.001 512.001;" xml:space="preserve">
<path style="fill:#FF4128;" d="M325.769,282.96v-34.946c0-11.033-8.936-19.969-19.969-19.969h-29.954l28.776,137.909l0.07,0.489
	c23.714-3.435,36.055-10.993,36.055-10.993C340.746,321.491,332.189,296.529,325.769,282.96z"/>
<path style="fill:#FF6337;" d="M304.621,365.953l0.07,0.489c-6.969,1.008-14.937,1.667-23.853,1.667
	c-39.24,0-59.908-12.661-59.908-12.661c0-33.958,8.557-58.92,14.977-72.489v-34.946c0-11.033,8.936-19.969,19.969-19.969h19.969
	c11.033,0,19.969,8.936,19.969,19.969v34.946h0.23C299.719,298.496,304.621,327.073,304.621,365.953z"/>
<path style="fill:#E18F4E;" d="M307.796,117.497h-26.959v80.876c24.812,0,44.931-20.119,44.931-44.931
	C325.769,138.744,318.709,125.684,307.796,117.497z"/>
<path style="fill:#FFA754;" d="M294.017,132.114c1.148,6.35,1.797,13.609,1.797,21.327c0,24.812-6.71,44.931-14.977,44.931
	c-24.812,0-44.931-20.119-44.931-44.931L294.017,132.114z"/>
<path style="fill:#40211D;" d="M307.796,117.497c-4.034,5.372-8.657,10.274-13.779,14.618l-13.18-23.604
	C290.942,108.511,300.288,111.856,307.796,117.497z"/>
<path style="fill:#60312C;" d="M235.906,153.442c0-24.812,20.119-44.931,44.931-44.931c5.691,0,10.654,9.545,13.18,23.604
	C278.351,145.414,258.062,153.442,235.906,153.442z"/>
<circle style="fill:#FFCB63;" cx="156.031" cy="88.255" r="14.977"/>
<g>
	<circle style="fill:#49C9FF;" cx="111.1" cy="133.186" r="14.977"/>
	<path style="fill:#49C9FF;" d="M402.72,21.042c-8.774-8.774-20.272-13.16-31.771-13.16v108.474l31.771-31.771
		C420.267,67.037,420.267,38.588,402.72,21.042z"/>
</g>
<path style="fill:#7DD9FF;" d="M381.539,21.042c-2.924-8.774-6.758-13.16-10.591-13.16c-11.499,0-22.998,4.386-31.771,13.16
	c-17.546,17.547-17.546,45.995,0,63.543l31.771,31.771l10.591-31.771C387.388,67.037,387.388,38.588,381.539,21.042z"/>
<circle cx="280.839" cy="257.885" r="7.489"/>
<circle cx="280.839" cy="287.839" r="7.489"/>
<circle cx="111.1" cy="192.705" r="7.489"/>
<circle cx="200.962" cy="132.796" r="7.489"/>
<circle cx="111.1" cy="87.865" r="7.489"/>
<path d="M178.494,87.865c0-12.388-10.079-22.466-22.466-22.466c-12.387,0-22.466,10.078-22.466,22.466s10.079,22.466,22.466,22.466
	C168.416,110.331,178.494,100.253,178.494,87.865z M148.54,87.865c0-4.13,3.359-7.489,7.489-7.489s7.489,3.359,7.489,7.489
	s-3.359,7.489-7.489,7.489S148.54,91.995,148.54,87.865z"/>
<path d="M111.098,110.331c-12.387,0-22.466,10.078-22.466,22.466s10.079,22.466,22.466,22.466s22.466-10.078,22.466-22.466
	S123.485,110.331,111.098,110.331z M111.098,140.285c-4.13,0-7.489-3.359-7.489-7.489s3.359-7.489,7.489-7.489
	s7.489,3.359,7.489,7.489S115.226,140.285,111.098,140.285z"/>
<path d="M280.837,205.468c28.904,0,52.42-23.515,52.42-52.42s-23.516-52.42-52.42-52.42s-52.42,23.515-52.42,52.42
	S251.933,205.468,280.837,205.468z M318.28,153.048c0,20.646-16.796,37.443-37.443,37.443c-18.201,0-33.403-13.056-36.75-30.294
	c24.993-2.052,47.842-13.474,64.508-32.25C314.61,134.594,318.28,143.4,318.28,153.048z M280.837,115.606
	c5.574,0,10.864,1.234,15.622,3.428c-13.697,14.912-32.095,24.11-52.217,26.107C247.883,128.28,262.904,115.606,280.837,115.606z"/>
<path d="M363.461,119.064v6.882c0,4.136,3.352,7.489,7.489,7.489s7.489-3.353,7.489-7.489v-6.882l29.578-29.579
	c9.901-9.901,15.353-23.065,15.353-37.066s-5.453-27.165-15.353-37.066C398.115,5.453,384.951,0,370.949,0
	s-27.165,5.453-37.067,15.353c-20.438,20.439-20.438,53.694,0,74.132L363.461,119.064z M344.473,25.943
	c7.072-7.072,16.475-10.966,26.476-10.966s19.404,3.894,26.475,10.966c7.073,7.072,10.967,16.475,10.967,26.476
	s-3.894,19.404-10.967,26.476l-26.475,26.476l-26.476-26.476C329.874,64.297,329.874,40.542,344.473,25.943z"/>
<path d="M385.926,240.132h-7.489v-84.231c0-4.136-3.352-7.489-7.489-7.489s-7.489,3.353-7.489,7.489v84.231h-31.25
	c-3.269-11.51-13.868-19.969-26.411-19.969h-49.923c-12.436,0-22.962,8.314-26.328,19.674
	c-36.947-3.233-66.031-34.321-66.031-72.093c0-4.136-3.352-7.489-7.489-7.489c-4.137,0-7.489,3.353-7.489,7.489
	c0,45.651,35.196,83.23,79.878,87.042v26.128c-5.912,12.953-14.977,38.617-14.977,74.15c0,2.606,1.355,5.025,3.578,6.386
	c0.579,0.354,9.564,5.735,26.377,9.662v118.017l-24.834,8.278c-3.924,1.308-6.044,5.548-4.736,9.472
	c1.046,3.138,3.968,5.122,7.103,5.122c0.785,0,1.584-0.125,2.369-0.386l29.954-9.985c3.057-1.019,5.12-3.881,5.12-7.104V373.795
	c6.709,0.867,14.194,1.413,22.466,1.413c8.271,0,15.757-0.546,22.466-1.413v120.73c0,3.223,2.062,6.085,5.12,7.104l29.954,9.985
	c0.786,0.262,1.585,0.386,2.369,0.386c3.135,0,6.057-1.985,7.103-5.122c1.308-3.924-0.812-8.164-4.736-9.472l-24.834-8.278V371.11
	c16.812-3.926,25.797-9.308,26.377-9.662c2.223-1.361,3.578-3.78,3.578-6.386c0-35.534-9.065-61.198-14.977-74.15v-25.802h30.204
	v67.397c0,4.136,3.352,7.488,7.489,7.488s7.489-3.353,7.489-7.488v-37.443h7.489c12.387,0,22.466-10.078,22.466-22.466
	C408.392,250.209,398.313,240.132,385.926,240.132z M280.837,360.231c-27.329,0-45.155-6.493-52.366-9.745
	c0.749-31.655,9.121-53.976,14.204-64.716c0.474-1.001,0.72-2.096,0.72-3.203V247.62c0-6.882,5.598-12.481,12.481-12.481H305.8
	c6.882,0,12.481,5.598,12.481,12.481v34.946c0,1.108,0.246,2.203,0.72,3.203c5.083,10.739,13.454,33.062,14.204,64.714
	C325.971,353.746,308.152,360.231,280.837,360.231z M385.926,270.086h-7.489v-14.977h7.489c4.13,0,7.488,3.359,7.488,7.489
	C393.415,266.727,390.055,270.086,385.926,270.086z"/>
<g>
</g>
<g>
</g>
<g>
</g>
<g>
</g>
<g>
</g>
<g>
</g>
<g>
</g>
<g>
</g>
<g>
</g>
<g>
</g>
<g>
</g>
<g>
</g>
<g>
</g>
<g>
</g>
<g>
</g>
</svg>
