<?xml version="1.0" encoding="iso-8859-1"?>
<!-- Generator: Adobe Illustrator 19.0.0, SVG Export Plug-In . SVG Version: 6.00 Build 0)  -->
<svg version="1.1" id="Capa_1" xmlns="http://www.w3.org/2000/svg" xmlns:xlink="http://www.w3.org/1999/xlink" x="0px" y="0px"
	 viewBox="0 0 512 512" style="enable-background:new 0 0 512 512;" xml:space="preserve">
<path style="fill:#E18F4E;" d="M387.853,236.097H281.204v15.199h106.649c4.191,0,7.6,3.409,7.6,7.6h15.199
	C410.653,246.325,400.424,236.097,387.853,236.097z"/>
<g>
	<path style="fill:#FFA754;" d="M235.606,236.097c-40.508,0-73.464-32.955-73.464-73.464c0-4.197-3.402-7.6-7.6-7.6
		s-7.6,3.403-7.6,7.6c0,48.889,39.774,88.663,88.663,88.663h45.598v-15.199H235.606z"/>
	<path style="fill:#FFA754;" d="M243.206,289.582v199.205l-25.201,8.4c-3.982,1.327-6.133,5.631-4.807,9.613
		c1.327,3.982,5.633,6.134,9.613,4.807l30.397-10.133c3.103-1.035,5.196-3.939,5.196-7.21V289.582H243.206z"/>
</g>
<path style="fill:#E18F4E;" d="M319.203,289.582v199.205l25.201,8.4c3.982,1.327,6.133,5.631,4.807,9.613
	c-1.327,3.982-5.633,6.134-9.613,4.807l-30.397-10.133c-3.103-1.035-5.196-3.939-5.196-7.21V289.582H319.203z"/>
<path style="fill:#FF4128;" d="M326.803,279.162v-35.465c0-11.197-9.069-20.266-20.266-20.266h-30.399l29.203,139.956l0.071,0.497
	c24.066-3.486,36.59-11.156,36.59-11.156C342.002,318.265,333.318,292.933,326.803,279.162z"/>
<path style="fill:#FF6337;" d="M305.341,363.387l0.071,0.497c-7.073,1.023-15.159,1.692-24.208,1.692
	c-39.822,0-60.798-12.849-60.798-12.849c0-34.462,8.684-59.794,15.199-73.565v-35.465c0-11.197,9.069-20.266,20.266-20.266h20.266
	c11.197,0,20.266,9.069,20.266,20.266v35.465h0.233C300.366,294.929,305.341,323.93,305.341,363.387z"/>
<path style="fill:#E18F4E;" d="M308.563,111.242h-27.359v82.077c25.18,0,45.598-20.418,45.598-45.598
	C326.803,132.805,319.639,119.551,308.563,111.242z"/>
<path style="fill:#FFA754;" d="M294.58,126.077c1.165,6.445,1.824,13.811,1.824,21.644c0,25.18-6.809,45.598-15.199,45.598
	c-25.18,0-45.598-20.418-45.598-45.598L294.58,126.077z"/>
<path style="fill:#40211D;" d="M308.563,111.242c-4.094,5.452-8.785,10.427-13.983,14.835l-13.375-23.954
	C291.459,102.123,300.943,105.517,308.563,111.242z"/>
<path style="fill:#60312C;" d="M235.606,147.721c0-25.18,20.418-45.598,45.598-45.598c5.776,0,10.812,9.687,13.375,23.954
	C278.681,139.574,258.091,147.721,235.606,147.721z"/>
<g>
	<circle style="fill:#FFE2A8;" cx="281.207" cy="254.114" r="7.6"/>
	<circle style="fill:#FFE2A8;" cx="281.207" cy="284.513" r="7.6"/>
</g>
<circle style="fill:#FFCB63;" cx="154.546" cy="81.57" r="15.199"/>
<circle style="fill:#49C9FF;" cx="108.947" cy="127.168" r="15.199"/>
<circle style="fill:#FF6753;" cx="108.947" cy="187.966" r="7.6"/>
<circle style="fill:#9DB55F;" cx="200.144" cy="127.168" r="7.6"/>
<circle style="fill:#FF6753;" cx="108.947" cy="81.57" r="7.6"/>
<path style="fill:#49C9FF;" d="M404.896,13.355C395.993,4.451,384.323,0,372.654,0v110.084l32.243-32.243
	C422.704,60.034,422.704,31.163,404.896,13.355z"/>
<path style="fill:#7DD9FF;" d="M383.401,13.355C380.433,4.451,376.543,0,372.654,0c-11.67,0-23.339,4.451-32.243,13.355
	c-17.807,17.808-17.807,46.678,0,64.486l32.243,32.243l10.748-32.243C389.337,60.034,389.337,31.163,383.401,13.355z"/>
<path style="fill:#FFE2A8;" d="M372.654,327.294c-4.198,0-7.6-3.403-7.6-7.6V150.616c0-4.197,3.402-7.6,7.6-7.6
	c4.198,0,7.6,3.403,7.6,7.6v169.078C380.254,323.891,376.851,327.294,372.654,327.294z"/>
<path style="fill:#E18F4E;" d="M387.853,281.696h-15.199c-4.198,0-7.6-3.403-7.6-7.6s3.402-7.6,7.6-7.6h15.199
	c4.191,0,7.6-3.409,7.6-7.6c0-4.197,3.402-7.6,7.6-7.6c4.198,0,7.6,3.403,7.6,7.6C410.653,271.468,400.424,281.696,387.853,281.696z
	"/>
<path style="fill:#49C9FF;" d="M365.054,102.485v17.733c0,4.197,3.402,7.6,7.6,7.6c4.198,0,7.6-3.403,7.6-7.6v-17.733H365.054z"/>
<g>
</g>
<g>
</g>
<g>
</g>
<g>
</g>
<g>
</g>
<g>
</g>
<g>
</g>
<g>
</g>
<g>
</g>
<g>
</g>
<g>
</g>
<g>
</g>
<g>
</g>
<g>
</g>
<g>
</g>
</svg>
