<?xml version="1.0" encoding="iso-8859-1"?>
<!-- Generator: Adobe Illustrator 19.0.0, SVG Export Plug-In . SVG Version: 6.00 Build 0)  -->
<svg version="1.1" id="Capa_1" xmlns="http://www.w3.org/2000/svg" xmlns:xlink="http://www.w3.org/1999/xlink" x="0px" y="0px"
	 viewBox="0 0 512.002 512.002" style="enable-background:new 0 0 512.002 512.002;" xml:space="preserve">
<path style="fill:#FFA754;" d="M248.501,262.502h-30l15,105h30v-65.335C263.501,286.956,257.83,273.077,248.501,262.502z"/>
<path style="fill:#FFCB63;" d="M218.501,262.502h-60c-9.329,10.575-15,24.454-15,39.665v65.335h90v-65.335
	C233.501,286.956,227.83,273.077,218.501,262.502z"/>
<path style="fill:#40211D;" d="M271.001,75.002c0-5.023-2.478-9.458-6.268-12.18c2.46-3.966,3.052-9.011,1.13-13.651
	s-5.908-7.79-10.452-8.854c0.755-4.605-0.629-9.493-4.18-13.044c-3.552-3.552-8.439-4.936-13.044-4.18
	c-1.065-4.543-4.214-8.53-8.854-10.452s-9.686-1.33-13.651,1.13c-2.722-3.79-7.157-6.268-12.18-6.268s-9.458,2.478-12.18,6.268
	c-3.966-2.46-9.011-3.052-13.651-1.13s-7.79,5.908-8.854,10.452c-4.605-0.755-9.493,0.629-13.044,4.18
	c-3.552,3.552-4.936,8.439-4.18,13.044c-4.543,1.065-8.53,4.214-10.452,8.854s-1.33,9.686,1.13,13.651
	c-3.79,2.722-6.268,7.157-6.268,12.18s2.478,9.458,6.268,12.18c-2.46,3.966-3.052,9.011-1.13,13.651s5.908,7.79,10.452,8.854
	c-0.755,4.605,0.629,9.493,4.18,13.044c3.693,3.693,8.833,5.058,13.596,4.094h68.268c4.762,0.964,9.902-0.401,13.596-4.094
	c3.552-3.552,4.936-8.439,4.18-13.044c4.543-1.065,8.53-4.214,10.452-8.854s1.33-9.686-1.13-13.651
	C268.523,84.459,271.001,80.025,271.001,75.002z"/>
<path style="fill:#A45E43;" d="M203.501,52.502v90c24.853,0,45-20.147,45-45S228.354,52.502,203.501,52.502z"/>
<path style="fill:#C27749;" d="M218.501,97.502c0-24.853-6.716-45-15-45c-24.853,0-45,20.147-45,45s20.147,45,45,45
	C211.785,142.502,218.501,122.355,218.501,97.502z"/>
<path style="fill:#353535;" d="M228.501,172.502h-30v105h50v-85C248.501,181.456,239.547,172.502,228.501,172.502z"/>
<path style="fill:#4F4F4F;" d="M198.501,172.502h-20c-11.046,0-20,8.954-20,20v85h60v-85
	C218.501,181.456,209.547,172.502,198.501,172.502z"/>
<polygon style="fill:#49C9FF;" points="303.501,292.502 288.501,277.502 303.501,262.502 348.501,262.502 348.501,292.502 "/>
<rect x="166.05" y="262.5" style="fill:#C27749;" width="137.45" height="30"/>
<path style="fill:#2DADE3;" d="M177.22,312.502h21.281c11,0,20-9,20-20v-15l-90-45l-60,45c0,33.137,26.863,60,60,60
	C148.572,337.502,166.328,327.637,177.22,312.502z"/>
<path style="fill:#49C9FF;" d="M218.501,262.502c0-11-9-20-20-20H177.22c-10.892-15.135-28.649-25-48.719-25
	c-33.137,0-60,26.863-60,60h150V262.502z"/>
<path style="fill:#B3B3B3;" d="M383.501,102.502c-8.284,0-15,6.716-15,15v30c0,8.284,6.716,15,15,15s15-6.716,15-15v-30
	C398.501,109.218,391.785,102.502,383.501,102.502z"/>
<path d="M133.369,88.95c-1.369,4.823-1.113,10.034,0.841,14.751c1.954,4.716,5.458,8.582,9.836,11.025
	c0.582,4.98,2.812,9.696,6.422,13.307c4.279,4.279,10.017,6.596,15.94,6.585C175.913,144.117,189.033,150,203.5,150
	c14.464,0,27.581-5.88,37.086-15.375c0.017,0,0.035,0.001,0.052,0.001c5.908,0,11.627-2.325,15.896-6.594
	c3.61-3.61,5.84-8.326,6.422-13.306c4.379-2.443,7.882-6.309,9.835-11.025c1.954-4.716,2.21-9.927,0.841-14.751
	c3.11-3.933,4.868-8.845,4.868-13.95s-1.757-10.018-4.868-13.95c1.369-4.824,1.112-10.035-0.841-14.751
	c-1.954-4.717-5.457-8.583-9.835-11.025c-0.582-4.98-2.812-9.696-6.422-13.307c-3.61-3.609-8.326-5.841-13.306-6.422
	c-2.443-4.378-6.309-7.882-11.026-9.836s-9.928-2.211-14.751-0.842C213.518,1.757,208.606,0,203.501,0s-10.017,1.757-13.95,4.867
	c-4.824-1.367-10.035-1.111-14.752,0.842c-4.717,1.954-8.582,5.458-11.024,9.836c-4.98,0.581-9.696,2.812-13.306,6.422
	c-3.61,3.609-5.841,8.325-6.423,13.307c-4.378,2.442-7.882,6.309-9.836,11.025c-1.953,4.717-2.209,9.927-0.841,14.751
	c-3.11,3.932-4.868,8.845-4.868,13.95S130.258,85.018,133.369,88.95z M203.501,135c-20.678,0-37.5-16.822-37.5-37.5
	s16.822-37.5,37.5-37.5s37.5,16.822,37.5,37.5S224.179,135,203.501,135z M146.643,68.912c3.205-2.301,4.079-6.692,1.999-10.045
	c-1.296-2.09-1.506-4.579-0.574-6.828s2.839-3.861,5.233-4.422c3.841-0.9,6.329-4.623,5.69-8.517
	c-0.398-2.427,0.361-4.806,2.083-6.527s4.102-2.479,6.527-2.082c3.894,0.642,7.616-1.85,8.516-5.69
	c0.561-2.395,2.173-4.302,4.421-5.233c2.249-0.934,4.738-0.724,6.828,0.573c3.353,2.079,7.742,1.207,10.045-1.998
	c1.434-1.997,3.653-3.143,6.088-3.143s4.654,1.146,6.089,3.144c2.303,3.204,6.693,4.077,10.045,1.997
	c2.09-1.295,4.578-1.505,6.826-0.574c2.25,0.933,3.862,2.84,4.423,5.234c0.9,3.842,4.623,6.33,8.516,5.69
	c2.426-0.398,4.807,0.36,6.528,2.083c1.721,1.721,2.48,4.1,2.082,6.526c-0.639,3.894,1.849,7.616,5.69,8.517
	c2.395,0.561,4.302,2.172,5.233,4.422c0.932,2.249,0.723,4.738-0.574,6.828c-2.08,3.354-1.206,7.744,1.999,10.045
	c1.997,1.435,3.142,3.653,3.142,6.088s-1.146,4.653-3.144,6.089c-3.204,2.301-4.077,6.691-1.998,10.044
	c1.296,2.09,1.505,4.579,0.574,6.828c-0.632,1.527-1.722,2.75-3.102,3.56c0.101-1.329,0.169-2.667,0.169-4.021
	c0-28.948-23.551-52.5-52.5-52.5s-52.5,23.552-52.5,52.5c0,1.354,0.068,2.692,0.169,4.021c-1.38-0.81-2.469-2.033-3.102-3.56
	c-0.932-2.249-0.722-4.738,0.574-6.828c2.08-3.353,1.206-7.743-1.998-10.045c-1.998-1.435-3.144-3.653-3.144-6.088
	S144.646,70.347,146.643,68.912z"/>
<path d="M188.501,290c4.142,0,7.5-3.357,7.5-7.5v-10c0-4.143-3.358-7.5-7.5-7.5s-7.5,3.357-7.5,7.5v10
	C181.001,286.643,184.359,290,188.501,290z"/>
<path d="M166.001,272.5c0-4.143-3.358-7.5-7.5-7.5s-7.5,3.357-7.5,7.5v10c0,4.143,3.358,7.5,7.5,7.5s7.5-3.357,7.5-7.5V272.5z"/>
<path d="M348.501,300c4.142,0,7.5-3.357,7.5-7.5v-30c0-4.143-3.358-7.5-7.5-7.5h-92.5v-55.286c50.271-3.842,90-45.976,90-97.214
	c0-4.143-3.358-7.5-7.5-7.5s-7.5,3.357-7.5,7.5c0,43.343-33.605,78.961-76.125,82.229c-3.362-11.39-13.91-19.729-26.375-19.729h-50
	c-15.164,0-27.5,12.337-27.5,27.5c0,4.143,3.358,7.5,7.5,7.5s7.5-3.357,7.5-7.5c0-6.893,5.607-12.5,12.5-12.5h50
	c6.893,0,12.5,5.607,12.5,12.5V255h-16.04c-3.272-11.53-13.896-20-26.46-20h-17.579c-11.188-13.775-27.4-22.601-44.921-24.576V202.5
	c0-4.143-3.358-7.5-7.5-7.5c-4.142,0-7.5,3.357-7.5,7.5v7.927c-33.702,3.744-60,32.39-60,67.073c0,37.22,30.28,67.5,67.5,67.5
	c2.519,0,5.023-0.144,7.5-0.424V367.5c0,4.143,3.358,7.5,7.5,7.5h22.5v114.095l-24.872,8.29c-3.93,1.31-6.053,5.558-4.744,9.487
	c1.048,3.143,3.974,5.13,7.114,5.13c0.786,0,1.586-0.125,2.373-0.387l30-10c3.062-1.021,5.128-3.887,5.128-7.115V375h45v119.5
	c0,3.229,2.066,6.095,5.128,7.115l30,10c0.787,0.262,1.586,0.387,2.373,0.387c3.14,0,6.066-1.987,7.114-5.13
	c1.31-3.93-0.814-8.178-4.744-9.487l-24.872-8.29V375h22.5c4.142,0,7.5-3.357,7.5-7.5v-65.335c0-0.721-0.021-1.443-0.044-2.165
	H348.501z M226.001,285v-15h70v15H226.001z M341.001,285h-30v-15h30V285z M76.001,277.5c0-26.401,19.593-48.304,45-51.956v6.956
	c0,4.143,3.358,7.5,7.5,7.5c4.142,0,7.5-3.357,7.5-7.5v-6.934c13.979,2.037,26.752,9.671,35.132,21.315
	c1.409,1.958,3.675,3.119,6.087,3.119h21.281c6.893,0,12.5,5.607,12.5,12.5v30c0,6.893-5.607,12.5-12.5,12.5H177.22
	c-2.413,0-4.678,1.161-6.087,3.119C161.272,321.82,145.335,330,128.501,330C99.552,330,76.001,306.448,76.001,277.5z
	 M256.001,302.165V360h-105v-18.895c11.606-4.122,22.018-11.375,29.921-21.105h17.579c12.565,0,23.188-8.47,26.46-20h30.995
	C255.985,300.721,256.001,301.443,256.001,302.165z"/>
<path d="M448.804,499.196l-57.803-57.803V240h2.5c4.142,0,7.5-3.357,7.5-7.5s-3.358-7.5-7.5-7.5h-2.5v-56.29
	c8.729-3.096,15-11.433,15-21.21v-30c0-12.406-10.093-22.5-22.5-22.5s-22.5,10.094-22.5,22.5v30c0,9.777,6.271,18.114,15,21.21V225
	h-2.5c-4.142,0-7.5,3.357-7.5,7.5s3.358,7.5,7.5,7.5h2.5v201.393l-57.803,57.803c-2.929,2.93-2.929,7.678,0,10.607
	c2.929,2.928,7.678,2.928,10.606,0l47.197-47.197V504.5c0,4.143,3.358,7.5,7.5,7.5s7.5-3.357,7.5-7.5v-41.894l47.197,47.197
	c1.464,1.464,3.384,2.196,5.303,2.196s3.839-0.732,5.303-2.196C451.733,506.874,451.733,502.126,448.804,499.196z M376.001,117.5
	c0-4.136,3.364-7.5,7.5-7.5s7.5,3.364,7.5,7.5v30c0,4.136-3.364,7.5-7.5,7.5s-7.5-3.364-7.5-7.5V117.5z"/>
<g>
</g>
<g>
</g>
<g>
</g>
<g>
</g>
<g>
</g>
<g>
</g>
<g>
</g>
<g>
</g>
<g>
</g>
<g>
</g>
<g>
</g>
<g>
</g>
<g>
</g>
<g>
</g>
<g>
</g>
</svg>
