<?xml version="1.0" encoding="iso-8859-1"?>
<!-- Generator: Adobe Illustrator 19.0.0, SVG Export Plug-In . SVG Version: 6.00 Build 0)  -->
<svg version="1.1" id="Capa_1" xmlns="http://www.w3.org/2000/svg" xmlns:xlink="http://www.w3.org/1999/xlink" x="0px" y="0px"
	 viewBox="0 0 512 512" style="enable-background:new 0 0 512 512;" xml:space="preserve">
<path style="fill:#A45E43;" d="M335.921,88.801c-4.204,0-7.612,3.407-7.612,7.611c0,46.166-37.559,83.726-83.726,83.726h-45.669
	v15.223h45.669c54.561,0,98.949-44.388,98.949-98.949C343.532,92.208,340.124,88.801,335.921,88.801z"/>
<path style="fill:#4F4F4F;" d="M160.856,289.237v199.515l-25.24,8.413c-3.988,1.329-6.143,5.64-4.815,9.628
	c1.329,3.988,5.642,6.144,9.628,4.815l30.444-10.149c3.108-1.036,5.204-3.945,5.204-7.221V289.237H160.856z"/>
<path style="fill:#353535;" d="M236.971,289.237v199.515l25.24,8.413c3.988,1.329,6.143,5.64,4.815,9.628
	c-1.329,3.988-5.642,6.144-9.628,4.815l-30.444-10.149c-3.108-1.036-5.204-3.945-5.204-7.221V289.237H236.971z"/>
<path style="fill:#FFA754;" d="M244.583,258.791h-30.446l15.223,106.561h30.446v-66.306
	C259.806,283.608,254.051,269.523,244.583,258.791z"/>
<path style="fill:#FFCB63;" d="M214.137,258.791h-60.892c-9.468,10.732-15.223,24.818-15.223,40.255v66.306h91.338v-66.306
	C229.36,283.608,223.605,269.523,214.137,258.791z"/>
<path style="fill:#40211D;" d="M267.417,68.503c0-5.098-2.515-9.599-6.361-12.361c2.497-4.025,3.097-9.145,1.147-13.854
	s-5.996-7.906-10.607-8.986c0.766-4.673-0.638-9.634-4.242-13.238c-3.605-3.605-8.564-5.009-13.238-4.242
	c-1.081-4.611-4.277-8.657-8.986-10.607c-4.709-1.951-9.83-1.35-13.854,1.147C208.512,2.515,204.012,0,198.914,0
	s-9.599,2.515-12.361,6.361c-4.025-2.497-9.145-3.097-13.854-1.147c-4.709,1.951-7.906,5.996-8.986,10.607
	c-4.673-0.766-9.634,0.638-13.238,4.242c-3.605,3.605-5.009,8.564-4.242,13.238c-4.611,1.081-8.657,4.277-10.607,8.986
	c-1.951,4.709-1.35,9.83,1.147,13.854c-3.846,2.762-6.361,7.263-6.361,12.361c0,5.098,2.515,9.599,6.361,12.361
	c-2.497,4.025-3.097,9.145-1.147,13.854c1.951,4.709,5.996,7.906,10.607,8.986c-0.766,4.673,0.638,9.634,4.242,13.238
	c3.748,3.748,8.964,5.133,13.798,4.155h69.283c4.833,0.978,10.049-0.407,13.798-4.155c3.605-3.605,5.009-8.564,4.242-13.238
	c4.611-1.081,8.657-4.277,10.607-8.986c1.951-4.709,1.35-9.83-1.147-13.854C264.903,78.102,267.417,73.601,267.417,68.503z"/>
<path style="fill:#A45E43;" d="M198.914,45.669v91.338c25.222,0,45.669-20.447,45.669-45.669S224.136,45.669,198.914,45.669z"/>
<path style="fill:#C27749;" d="M214.137,91.338c0-25.222-6.816-45.669-15.223-45.669c-25.222,0-45.669,20.447-45.669,45.669
	s20.447,45.669,45.669,45.669C207.321,137.007,214.137,116.56,214.137,91.338z"/>
<path style="fill:#353535;" d="M224.286,167.453H193.84v106.561h50.743V187.75C244.583,176.54,235.496,167.453,224.286,167.453z"/>
<path style="fill:#4F4F4F;" d="M193.84,167.453h-20.297c-11.21,0-20.297,9.087-20.297,20.297v86.264h60.892V187.75
	C214.137,176.54,205.05,167.453,193.84,167.453z"/>
<polygon style="fill:#49C9FF;" points="300.401,289.237 285.178,274.014 300.401,258.791 346.07,258.791 346.07,289.237 "/>
<rect x="160.907" y="258.791" style="fill:#C27749;" width="139.493" height="30.446"/>
<path style="fill:#2DADE3;" d="M172.242,309.534h21.597c11.164,0,20.297-9.134,20.297-20.297v-15.223l-91.338-45.669l-60.892,45.669
	c0,33.63,27.262,60.892,60.892,60.892C143.168,334.906,161.188,324.894,172.242,309.534z"/>
<path style="fill:#49C9FF;" d="M214.137,258.791c0-11.164-9.134-20.297-20.297-20.297h-21.597
	c-11.054-15.36-29.075-25.372-49.443-25.372c-33.63,0-60.892,27.262-60.892,60.892h152.23V258.791z"/>
<g>
	<path style="fill:#084F6D;" d="M183.691,286.7c-4.204,0-7.611-3.407-7.611-7.611V268.94c0-4.205,3.408-7.611,7.611-7.611
		c4.204,0,7.611,3.407,7.611,7.611v10.149C191.302,283.293,187.895,286.7,183.691,286.7z"/>
	<path style="fill:#084F6D;" d="M153.245,286.7c-4.204,0-7.611-3.407-7.611-7.611V268.94c0-4.205,3.408-7.611,7.611-7.611
		c4.204,0,7.611,3.407,7.611,7.611v10.149C160.856,283.293,157.449,286.7,153.245,286.7z"/>
</g>
<path style="fill:#C27749;" d="M122.799,235.956c-4.204,0-7.611-3.407-7.611-7.611v-30.446c0-4.205,3.408-7.611,7.611-7.611
	c4.204,0,7.612,3.407,7.612,7.611v30.446C130.41,232.549,127.003,235.956,122.799,235.956z"/>
<path style="fill:#696969;" d="M373.978,137.007v367.382c0,4.205,3.408,7.611,7.612,7.611c4.204,0,7.611-3.407,7.611-7.611V137.007
	H373.978z"/>
<path style="fill:#B3B3B3;" d="M381.59,96.412c-8.407,0-15.223,6.816-15.223,15.223v30.446c0,8.407,6.816,15.223,15.223,15.223
	c8.407,0,15.223-6.816,15.223-15.223v-30.446C396.813,103.228,389.997,96.412,381.59,96.412z"/>
<path style="fill:#696969;" d="M442.482,512c-1.948,0-3.896-0.743-5.382-2.229l-55.51-55.511l-55.51,55.51
	c-2.973,2.972-7.792,2.972-10.764,0c-2.973-2.974-2.973-7.792,0-10.765l60.892-60.892c2.973-2.972,7.792-2.972,10.764,0
	l60.892,60.892c2.973,2.974,2.973,7.792,0,10.765C446.378,511.257,444.429,512,442.482,512z"/>
<path style="fill:#4F4F4F;" d="M391.738,235.956h-20.297c-4.204,0-7.611-3.407-7.611-7.611c0-4.205,3.408-7.612,7.611-7.612h20.297
	c4.204,0,7.612,3.407,7.612,7.612C399.35,232.549,395.942,235.956,391.738,235.956z"/>
<g>
</g>
<g>
</g>
<g>
</g>
<g>
</g>
<g>
</g>
<g>
</g>
<g>
</g>
<g>
</g>
<g>
</g>
<g>
</g>
<g>
</g>
<g>
</g>
<g>
</g>
<g>
</g>
<g>
</g>
</svg>
