<?xml version="1.0" encoding="iso-8859-1"?>
<!-- Generator: Adobe Illustrator 19.0.0, SVG Export Plug-In . SVG Version: 6.00 Build 0)  -->
<svg version="1.1" id="Capa_1" xmlns="http://www.w3.org/2000/svg" xmlns:xlink="http://www.w3.org/1999/xlink" x="0px" y="0px"
	 viewBox="0 0 512.003 512.003" style="enable-background:new 0 0 512.003 512.003;" xml:space="preserve">
<g>
	<polygon style="fill:#E18F4E;" points="17.502,7.503 77.502,135.003 194.502,135.003 254.502,7.503 	"/>
	<polygon style="fill:#E18F4E;" points="194.502,135.003 77.502,135.003 17.502,277.503 254.502,277.503 	"/>
</g>
<polygon style="fill:#FFA754;" points="107.502,97.503 17.502,7.503 17.502,277.503 107.502,187.503 "/>
<polygon style="fill:#C27749;" points="164.502,97.503 164.502,187.503 254.502,277.503 254.502,7.503 "/>
<rect x="47.501" y="37.503" style="fill:#FFF0D3;" width="177" height="210"/>
<polygon style="fill:#2DADE3;" points="154.502,77.503 124.502,142.503 154.502,207.503 184.502,207.503 184.502,77.503 "/>
<rect x="87.501" y="77.501" style="fill:#49C9FF;" width="67" height="130"/>
<path style="fill:#40211D;" d="M419.502,75.003c0-5.023-2.478-9.458-6.268-12.18c2.46-3.966,3.052-9.011,1.13-13.651
	s-5.908-7.79-10.452-8.854c0.755-4.605-0.629-9.493-4.18-13.044c-3.552-3.552-8.439-4.936-13.044-4.18
	c-1.065-4.543-4.214-8.53-8.854-10.452s-9.686-1.33-13.651,1.13c-2.722-3.79-7.157-6.268-12.18-6.268s-9.458,2.478-12.18,6.268
	c-3.966-2.46-9.011-3.052-13.651-1.13s-7.79,5.908-8.854,10.452c-4.605-0.755-9.493,0.629-13.044,4.18
	c-3.552,3.552-4.936,8.439-4.18,13.044c-4.543,1.065-8.53,4.214-10.452,8.854s-1.33,9.686,1.13,13.651
	c-3.79,2.722-6.268,7.157-6.268,12.18s2.478,9.458,6.268,12.18c-2.46,3.966-3.052,9.011-1.13,13.651s5.908,7.79,10.452,8.854
	c-0.755,4.605,0.629,9.493,4.18,13.044c3.693,3.693,8.833,5.058,13.596,4.094h68.268c4.762,0.964,9.902-0.401,13.596-4.094
	c3.552-3.552,4.936-8.439,4.18-13.044c4.543-1.065,8.53-4.214,10.452-8.854s1.33-9.686-1.13-13.651
	C417.024,84.46,419.502,80.026,419.502,75.003z"/>
<path style="fill:#85453D;" d="M352.002,52.503v90c24.853,0,45-20.147,45-45S376.855,52.503,352.002,52.503z"/>
<path style="fill:#A45E43;" d="M367.002,97.503c0-24.853-6.716-45-15-45c-24.853,0-45,20.147-45,45s20.147,45,45,45
	C360.286,142.503,367.002,122.356,367.002,97.503z"/>
<path style="fill:#FFF0D3;" d="M377.002,172.503h-30v90l50-30v-40C397.002,181.457,388.048,172.503,377.002,172.503z"/>
<path style="fill:#FFFFFF;" d="M347.002,172.503h-20c-11.046,0-20,8.954-20,20v40l60,30v-70
	C367.002,181.457,358.048,172.503,347.002,172.503z"/>
<path style="fill:#808080;" d="M382.002,307.503l-15-75h-60v30c-9.329,10.575-15,24.454-15,39.665v155.335h45v-150H382.002z"/>
<path style="fill:#696969;" d="M397.002,262.503v-30h-30v225h45V302.168C412.002,286.957,406.331,273.078,397.002,262.503z"/>
<path style="fill:#FFF0D3;" d="M449.502,52.503c0,0,0,21.716,0,30l15,15l15-15c0-8.284,0-30,0-30H449.502z"/>
<path style="fill:#FFCB63;" d="M479.502,82.503c0,0,0,11.716,0,20s-6.716,15-15,15s-15-6.716-15-15s0-20,0-20H479.502z"/>
<circle cx="367.001" cy="262.501" r="7.5"/>
<circle cx="337.001" cy="262.501" r="7.5"/>
<path d="M254.502,300.001h-30c-4.142,0-7.5,3.358-7.5,7.5s3.358,7.5,7.5,7.5h30c4.142,0,7.5-3.358,7.5-7.5
	S258.644,300.001,254.502,300.001z"/>
<path d="M184.502,70.001h-97c-4.142,0-7.5,3.358-7.5,7.5v85c0,4.142,3.358,7.5,7.5,7.5s7.5-3.358,7.5-7.5v-77.5h82v115h-82v-7.5
	c0-4.142-3.358-7.5-7.5-7.5s-7.5,3.358-7.5,7.5v15c0,4.142,3.358,7.5,7.5,7.5h97c4.142,0,7.5-3.358,7.5-7.5v-130
	C192.002,73.359,188.644,70.001,184.502,70.001z"/>
<path d="M261.965,6.76c-0.01-0.106-0.031-0.21-0.045-0.315c-0.019-0.137-0.036-0.275-0.063-0.411
	c-0.024-0.122-0.058-0.24-0.088-0.36c-0.029-0.117-0.055-0.235-0.09-0.351c-0.036-0.118-0.08-0.231-0.121-0.347
	c-0.041-0.116-0.08-0.232-0.127-0.346c-0.045-0.108-0.098-0.212-0.147-0.317c-0.055-0.116-0.106-0.233-0.167-0.347
	c-0.055-0.103-0.118-0.2-0.177-0.3c-0.066-0.11-0.128-0.222-0.2-0.329c-0.075-0.112-0.158-0.217-0.239-0.324
	c-0.066-0.088-0.127-0.179-0.198-0.264c-0.314-0.383-0.665-0.734-1.048-1.048c-0.083-0.068-0.172-0.128-0.257-0.192
	c-0.11-0.083-0.218-0.168-0.332-0.244c-0.104-0.069-0.211-0.129-0.317-0.193c-0.104-0.062-0.206-0.127-0.312-0.185
	c-0.108-0.058-0.219-0.107-0.329-0.159c-0.112-0.053-0.221-0.108-0.336-0.156c-0.107-0.044-0.216-0.08-0.324-0.119
	c-0.122-0.044-0.243-0.091-0.369-0.129c-0.107-0.032-0.216-0.056-0.325-0.083c-0.129-0.033-0.256-0.068-0.387-0.095
	c-0.122-0.024-0.245-0.038-0.367-0.056c-0.12-0.018-0.237-0.04-0.359-0.052c-0.216-0.021-0.432-0.03-0.648-0.033
	c-0.03,0-0.059-0.005-0.089-0.005h-237c-0.03,0-0.059,0.004-0.089,0.005c-0.216,0.003-0.433,0.012-0.648,0.033
	c-0.122,0.012-0.24,0.034-0.359,0.052c-0.122,0.018-0.245,0.032-0.367,0.056c-0.131,0.026-0.259,0.062-0.388,0.095
	c-0.108,0.027-0.217,0.051-0.324,0.083c-0.125,0.038-0.246,0.085-0.369,0.129c-0.108,0.039-0.218,0.075-0.324,0.119
	c-0.114,0.047-0.224,0.103-0.336,0.156c-0.11,0.052-0.221,0.101-0.329,0.159c-0.107,0.058-0.209,0.123-0.314,0.185
	c-0.106,0.063-0.213,0.123-0.316,0.192c-0.115,0.077-0.223,0.162-0.334,0.245C12.921,1.573,12.833,1.632,12.75,1.7
	c-0.383,0.314-0.734,0.665-1.048,1.048c-0.07,0.086-0.132,0.176-0.198,0.264c-0.081,0.107-0.164,0.213-0.239,0.324
	c-0.072,0.107-0.134,0.219-0.2,0.329c-0.06,0.1-0.122,0.197-0.177,0.3c-0.061,0.113-0.112,0.23-0.166,0.345
	c-0.05,0.106-0.103,0.21-0.148,0.319c-0.047,0.113-0.085,0.229-0.126,0.344c-0.042,0.116-0.086,0.23-0.122,0.349
	c-0.035,0.116-0.061,0.234-0.09,0.351c-0.03,0.12-0.064,0.238-0.088,0.36c-0.027,0.136-0.043,0.274-0.063,0.411
	C10.07,6.549,10.05,6.652,10.04,6.759c-0.024,0.247-0.037,0.495-0.037,0.744v269.995c0,0.248,0.013,0.496,0.037,0.744
	c0.01,0.107,0.031,0.21,0.046,0.315c0.019,0.137,0.036,0.274,0.063,0.41c0.024,0.122,0.058,0.241,0.088,0.361
	c0.029,0.117,0.055,0.235,0.09,0.351c0.036,0.119,0.08,0.233,0.122,0.349c0.041,0.115,0.079,0.23,0.126,0.344
	c0.045,0.109,0.098,0.213,0.148,0.319c0.054,0.116,0.106,0.232,0.166,0.346c0.055,0.103,0.118,0.201,0.178,0.301
	c0.065,0.11,0.127,0.221,0.199,0.327c0.075,0.112,0.159,0.218,0.24,0.326c0.066,0.088,0.127,0.178,0.197,0.263
	c0.314,0.383,0.665,0.734,1.048,1.047c0.083,0.068,0.171,0.127,0.256,0.191c0.11,0.083,0.219,0.168,0.334,0.245
	c0.104,0.069,0.211,0.129,0.318,0.193c0.104,0.062,0.205,0.127,0.312,0.184c0.11,0.059,0.223,0.108,0.335,0.161
	c0.109,0.052,0.217,0.106,0.329,0.153c0.11,0.046,0.223,0.082,0.335,0.122c0.119,0.043,0.236,0.088,0.358,0.125
	c0.112,0.034,0.227,0.059,0.34,0.087c0.124,0.031,0.246,0.066,0.372,0.091c0.131,0.026,0.263,0.041,0.394,0.06
	c0.111,0.016,0.219,0.037,0.331,0.048c0.246,0.024,0.493,0.037,0.74,0.037h237c0.247,0,0.494-0.013,0.74-0.037
	c0.112-0.011,0.22-0.032,0.331-0.048c0.132-0.019,0.264-0.034,0.395-0.06c0.126-0.025,0.248-0.059,0.371-0.091
	c0.114-0.029,0.228-0.054,0.341-0.088c0.122-0.037,0.239-0.082,0.358-0.125c0.112-0.04,0.224-0.077,0.335-0.122
	c0.112-0.047,0.22-0.101,0.329-0.153c0.112-0.053,0.225-0.103,0.335-0.161c0.106-0.057,0.207-0.122,0.31-0.183
	c0.107-0.064,0.215-0.124,0.319-0.194c0.114-0.077,0.222-0.162,0.332-0.244c0.086-0.064,0.174-0.124,0.257-0.192
	c0.383-0.314,0.734-0.665,1.048-1.047c0.07-0.085,0.131-0.175,0.197-0.263c0.081-0.108,0.165-0.214,0.24-0.326
	c0.072-0.107,0.134-0.218,0.199-0.327c0.06-0.1,0.123-0.198,0.178-0.301c0.061-0.114,0.113-0.231,0.167-0.347
	c0.05-0.105,0.102-0.209,0.147-0.317c0.047-0.114,0.085-0.23,0.127-0.346c0.041-0.115,0.086-0.229,0.121-0.347
	c0.035-0.116,0.061-0.234,0.09-0.351c0.03-0.12,0.064-0.239,0.088-0.361c0.027-0.136,0.043-0.273,0.063-0.41
	c0.015-0.105,0.035-0.209,0.046-0.315c0.024-0.247,0.037-0.495,0.037-0.744V7.504C262.002,7.255,261.989,7.007,261.965,6.76z
	 M55.002,240.001v-195h162v195H55.002z M221.396,30.001H50.608l-15-15h200.787L221.396,30.001z M40.002,40.607v203.787l-15,15
	V25.607L40.002,40.607z M50.608,255.001h170.787l15,15H35.608L50.608,255.001z M232.002,244.395V40.607l15-15v233.787
	L232.002,244.395z"/>
<path d="M292.547,114.728c0.582,4.98,2.812,9.696,6.423,13.307c4.279,4.279,10.017,6.597,15.94,6.585
	c9.505,9.499,22.624,15.381,37.092,15.381c14.465,0,27.581-5.88,37.086-15.375c0.017,0,0.035,0.001,0.052,0.001
	c5.907,0,11.626-2.324,15.896-6.593c3.61-3.61,5.84-8.326,6.422-13.306c4.379-2.443,7.882-6.309,9.835-11.025
	c1.954-4.716,2.21-9.927,0.842-14.751c3.11-3.933,4.868-8.845,4.868-13.95s-1.757-10.018-4.868-13.95
	c1.369-4.824,1.112-10.035-0.841-14.751s-5.457-8.583-9.835-11.025c-0.582-4.98-2.812-9.696-6.422-13.306s-8.326-5.841-13.306-6.422
	c-2.443-4.379-6.309-7.882-11.026-9.836s-9.928-2.21-14.751-0.841c-3.934-3.113-8.847-4.87-13.952-4.87
	c-5.106,0-10.018,1.757-13.95,4.868c-4.823-1.369-10.034-1.113-14.751,0.841c-4.716,1.954-8.582,5.457-11.025,9.835
	c-4.98,0.582-9.697,2.812-13.306,6.422c-3.61,3.61-5.841,8.326-6.423,13.307c-4.378,2.443-7.882,6.309-9.836,11.026
	c-1.953,4.716-2.209,9.927-0.841,14.75c-3.111,3.933-4.868,8.844-4.868,13.95c0,5.105,1.757,10.018,4.868,13.95
	c-1.369,4.824-1.113,10.034,0.841,14.751C284.665,108.419,288.168,112.285,292.547,114.728z M352.002,135.001
	c-20.678,0-37.5-16.822-37.5-37.5s16.822-37.5,37.5-37.5s37.5,16.822,37.5,37.5S372.68,135.001,352.002,135.001z M295.145,68.913
	c3.205-2.301,4.078-6.692,1.999-10.045c-1.296-2.09-1.506-4.579-0.575-6.827c0.932-2.25,2.84-3.861,5.234-4.422
	c3.841-0.9,6.329-4.622,5.69-8.516c-0.398-2.427,0.361-4.806,2.083-6.528c1.722-1.721,4.104-2.482,6.527-2.082
	c3.894,0.634,7.616-1.849,8.516-5.69c0.561-2.394,2.173-4.302,4.421-5.233c2.249-0.932,4.738-0.723,6.828,0.574
	c3.353,2.079,7.744,1.207,10.045-1.999c1.435-1.998,3.653-3.143,6.088-3.143s4.654,1.146,6.089,3.144
	c2.302,3.205,6.693,4.079,10.045,1.998c2.089-1.296,4.576-1.506,6.827-0.574c2.249,0.932,3.861,2.839,4.422,5.234
	c0.9,3.841,4.625,6.326,8.516,5.69c2.429-0.399,4.806,0.362,6.528,2.083c1.721,1.722,2.48,4.101,2.083,6.527
	c-0.639,3.894,1.849,7.616,5.69,8.516c2.395,0.561,4.302,2.173,5.233,4.422s0.723,4.738-0.574,6.829
	c-2.08,3.353-1.206,7.743,1.999,10.044c1.997,1.435,3.143,3.653,3.143,6.088s-1.146,4.654-3.144,6.089
	c-3.204,2.302-4.077,6.692-1.998,10.044c1.296,2.09,1.505,4.579,0.574,6.828c-0.633,1.527-1.723,2.75-3.102,3.56
	c0.101-1.329,0.169-2.667,0.169-4.021c0-28.949-23.551-52.5-52.5-52.5s-52.5,23.551-52.5,52.5c0,1.354,0.068,2.692,0.169,4.021
	c-1.379-0.81-2.469-2.033-3.102-3.56c-0.932-2.249-0.723-4.737,0.574-6.827c2.08-3.353,1.207-7.744-1.998-10.045
	c-1.998-1.435-3.144-3.654-3.144-6.089S293.147,70.348,295.145,68.913z"/>
<path d="M479.502,155.001h-7.5v-31.29c8.729-3.096,15-11.432,15-21.21v-50c0-4.142-3.358-7.5-7.5-7.5h-30
	c-4.142,0-7.5,3.358-7.5,7.5v50c0,9.778,6.271,18.114,15,21.21v31.29h-7.5c-4.142,0-7.5,3.358-7.5,7.5s3.358,7.5,7.5,7.5h30
	c4.136,0,7.5,3.364,7.5,7.5s-3.364,7.5-7.5,7.5h-76.048c-3.274-11.528-13.889-20-26.452-20h-50c-15.164,0-27.5,12.336-27.5,27.5
	v67.259c-9.693,11.989-15,26.935-15,42.406v155.335c0,4.142,3.358,7.5,7.5,7.5h22.5v24.094l-24.872,8.291
	c-3.93,1.31-6.053,5.558-4.744,9.487c1.048,3.143,3.974,5.13,7.114,5.13c0.786,0,1.586-0.125,2.373-0.387l30-10
	c3.062-1.021,5.128-3.887,5.128-7.115v-29.5h7.5c4.142,0,7.5-3.358,7.5-7.5v-142.5h15v82.5c0,4.142,3.358,7.5,7.5,7.5
	s7.5-3.358,7.5-7.5v-82.5h7.5c4.142,0,7.5-3.358,7.5-7.5s-3.358-7.5-7.5-7.5h-60c-4.142,0-7.5,3.358-7.5,7.5s3.358,7.5,7.5,7.5h7.5
	v135h-30V302.166c0-12.785,4.661-25.11,13.125-34.704c1.208-1.37,1.875-3.134,1.875-4.961v-22.5h75v22.5
	c0,1.827,0.667,3.591,1.875,4.961c8.463,9.594,13.125,21.918,13.125,34.704v147.835h-30v-22.5c0-4.142-3.358-7.5-7.5-7.5
	s-7.5,3.358-7.5,7.5v30c0,4.142,3.358,7.5,7.5,7.5h7.5v29.5c0,3.228,2.066,6.094,5.128,7.115l30,10
	c0.787,0.262,1.586,0.387,2.373,0.387c3.14,0,6.066-1.988,7.114-5.13c1.31-3.929-0.814-8.177-4.744-9.487l-24.872-8.291v-24.094H412
	c4.142,0,7.5-3.358,7.5-7.5V302.166c0-15.472-5.307-30.417-15-42.406v-59.759h75c12.407,0,22.5-10.093,22.5-22.5
	S491.909,155.001,479.502,155.001z M457.002,60.001h15v42.5c0,4.136-3.364,7.5-7.5,7.5s-7.5-3.364-7.5-7.5V60.001z M314.502,225.001
	v-32.5c0-6.893,5.607-12.5,12.5-12.5h50c6.893,0,12.5,5.607,12.5,12.5v32.5H314.502z"/>
<g>
</g>
<g>
</g>
<g>
</g>
<g>
</g>
<g>
</g>
<g>
</g>
<g>
</g>
<g>
</g>
<g>
</g>
<g>
</g>
<g>
</g>
<g>
</g>
<g>
</g>
<g>
</g>
<g>
</g>
</svg>
