<?xml version="1.0" encoding="iso-8859-1"?>
<!-- Generator: Adobe Illustrator 19.0.0, SVG Export Plug-In . SVG Version: 6.00 Build 0)  -->
<svg version="1.1" id="Capa_1" xmlns="http://www.w3.org/2000/svg" xmlns:xlink="http://www.w3.org/1999/xlink" x="0px" y="0px"
	 viewBox="0 0 512 512" style="enable-background:new 0 0 512 512;" xml:space="preserve">
<polygon style="fill:#353535;" points="481.998,322.499 391.999,277.5 451.998,352.499 481.998,352.499 "/>
<polygon style="fill:#4F4F4F;" points="451.998,352.499 245,352.499 245,322.499 451.998,262.5 "/>
<polygon style="fill:#FFE2A8;" points="451.998,322.499 361.999,180.001 451.998,37.502 481.998,37.502 481.998,322.499 "/>
<polygon style="fill:#FFF0D3;" points="245,322.499 245,37.502 451.998,37.502 451.998,292.5 393.498,322.499 "/>
<rect x="393.497" y="292.498" style="fill:#FF4128;" width="58.5" height="30"/>
<g>
	<path style="fill:#116F97;" d="M348.499,178.501c-4.143,0-7.5-3.358-7.5-7.5v-10c0-4.142,3.357-7.5,7.5-7.5s7.5,3.358,7.5,7.5v10
		C355.999,175.143,352.642,178.501,348.499,178.501z"/>
	<path style="fill:#116F97;" d="M378.499,178.501c-4.143,0-7.5-3.358-7.5-7.5v-10c0-4.142,3.357-7.5,7.5-7.5s7.5,3.358,7.5,7.5v10
		C385.999,175.143,382.642,178.501,378.499,178.501z"/>
	<path style="fill:#116F97;" d="M363.499,246c-36.393,0-65.999-29.607-65.999-65.999s29.607-65.999,65.999-65.999
		s65.999,29.607,65.999,65.999S399.892,246,363.499,246z M363.499,129.001c-28.121,0-51,22.878-51,51s22.879,51,51,51
		c28.121,0,51-22.878,51-51S391.62,129.001,363.499,129.001z"/>
</g>
<path style="fill:#FF4128;" d="M180.001,172.501h-30V292.5l50-30v-69.999C200,181.455,191.046,172.501,180.001,172.501z"/>
<path style="fill:#FF6337;" d="M150.001,172.501h-20c-11.046,0-20,8.954-20,20V292.5h60v-99.999
	C170.001,181.455,161.047,172.501,150.001,172.501z"/>
<polygon style="fill:#49C9FF;" points="200,262.5 170.001,262.5 140.001,307.5 170.001,352.499 200,352.499 "/>
<path style="fill:#A8E5FF;" d="M110.001,262.5c-7,7.93-11.82,17.74-13.97,28.54c-3.07,15.4-12.96,61.46-12.96,61.46h86.929V262.5
	H110.001z"/>
<path style="fill:#E18F4E;" d="M182.001,61.502h-27v80.999c24.85,0,45-20.15,45-45C200,82.781,192.93,69.701,182.001,61.502z"/>
<path style="fill:#FFA754;" d="M168.201,76.141c1.15,6.36,1.8,13.63,1.8,21.36c0,24.85-6.72,45-15,45c-24.85,0-45-20.15-45-45
	L168.201,76.141z"/>
<path style="fill:#60312C;" d="M182.001,61.502c-4.04,5.38-8.67,10.29-13.8,14.64l-13.2-23.64
	C165.121,52.502,174.481,55.852,182.001,61.502z"/>
<g>
	<path style="fill:#85453D;" d="M110.001,97.501c0-24.85,20.15-45,45-45c5.7,0,10.67,9.56,13.2,23.64
		C152.511,89.461,132.191,97.501,110.001,97.501z"/>
	<circle style="fill:#85453D;" cx="154.999" cy="30" r="22.5"/>
</g>
<path style="fill:#116F97;" d="M363.499,215.5c-7.49,0-14.568-2.891-19.931-8.141c-2.96-2.898-3.01-7.646-0.112-10.606
	c2.896-2.959,7.646-3.011,10.606-0.113c2.542,2.489,5.894,3.859,9.437,3.859c3.543,0,6.895-1.371,9.437-3.859
	c2.963-2.898,7.711-2.846,10.606,0.113c2.897,2.96,2.848,7.708-0.112,10.606C378.067,212.609,370.989,215.5,363.499,215.5z"/>
<circle cx="169.999" cy="322.497" r="7.5"/>
<circle cx="169.999" cy="292.498" r="7.5"/>
<path d="M481.998,30H245c-4.143,0-7.5,3.358-7.5,7.5v104.622c0,4.142,3.357,7.5,7.5,7.5s7.5-3.358,7.5-7.5V45h221.998v269.998h-15
	v-22.5c0-4.142-3.357-7.5-7.5-7.5h-58.5c-4.143,0-7.5,3.358-7.5,7.5v22.5H252.5V213.734c0-4.142-3.357-7.5-7.5-7.5
	s-7.5,3.358-7.5,7.5v290.762c0,4.142,3.357,7.5,7.5,7.5s7.5-3.358,7.5-7.5v-54.5h221.998v54.5c0,4.142,3.357,7.5,7.5,7.5
	s7.5-3.358,7.5-7.5V37.5C489.498,33.358,486.141,30,481.998,30z M400.999,299.998h43.5v15h-43.5V299.998z M474.498,329.997v15H252.5
	v-15H474.498z M252.5,434.997v-74.999h15v2.5c0,4.142,3.357,7.5,7.5,7.5s7.5-3.358,7.5-7.5v-2.5h161.999v2.5
	c0,4.142,3.357,7.5,7.5,7.5s7.5-3.358,7.5-7.5v-2.5h15v74.999H252.5z"/>
<path d="M155.001,149.999c28.948,0,52.5-23.551,52.5-52.5c0-20.965-12.356-39.091-30.165-47.499
	c4.762-5.312,7.665-12.323,7.665-20.001c0-16.542-13.458-30-30-30s-30,13.458-30,30c0,7.678,2.903,14.69,7.665,20.001
	c-17.808,8.408-30.165,26.534-30.165,47.499C102.501,126.448,126.053,149.999,155.001,149.999z M192.5,97.499
	c0,20.678-16.822,37.5-37.5,37.5c-18.229,0-33.454-13.076-36.806-30.34c25.031-2.055,47.915-13.495,64.606-32.299
	C188.825,79.016,192.5,87.836,192.5,97.499z M140.001,30c0-8.271,6.729-15,15-15c8.271,0,15,6.729,15,15s-6.729,15-15,15
	C146.73,45,140.001,38.271,140.001,30z M155.001,60c5.583,0,10.881,1.236,15.647,3.433c-13.718,14.935-32.144,24.147-52.298,26.146
	C121.996,72.693,137.041,60,155.001,60z"/>
<path style="fill:#116F97;" d="M80.001,170.001c-4.143,0-7.5-3.358-7.5-7.5v-35c0-4.142,3.357-7.5,7.5-7.5
	c4.143,0,7.5,3.358,7.5,7.5v35C87.501,166.643,84.144,170.001,80.001,170.001z"/>
<path d="M200,359.999c4.143,0,7.5-3.358,7.5-7.5V199.714c50.271-3.842,89.999-45.976,89.999-97.213c0-4.142-3.357-7.5-7.5-7.5
	c-4.143,0-7.5,3.358-7.5,7.5c0,43.343-33.605,78.96-76.124,82.228c-3.362-11.39-13.91-19.729-26.375-19.729h-50
	c-12.563,0-23.178,8.472-26.452,20H45.002c-4.136,0-7.5-3.364-7.5-7.5c0-4.136,3.364-7.5,7.5-7.5h35c4.143,0,7.5-3.358,7.5-7.5
	s-3.357-7.5-7.5-7.5h-35c-12.406,0-22.5,10.093-22.5,22.5c0,12.407,10.094,22.5,22.5,22.5h57.5v59.763
	c-6.861,8.511-11.62,18.756-13.823,29.809c-3.024,15.17-12.839,60.894-12.938,61.354c-0.476,2.215,0.075,4.526,1.5,6.288
	c1.424,1.762,3.567,2.786,5.833,2.786h2.678L58.553,488.742l-25.923,8.641c-3.929,1.31-6.053,5.557-4.743,9.487
	c1.048,3.143,3.974,5.13,7.114,5.13c0.786,0,1.586-0.125,2.373-0.387l30-10c2.525-0.842,4.416-2.96,4.966-5.565l28.743-136.049
	h76.418v134.499c0,3.228,2.065,6.094,5.128,7.115l30,10c0.787,0.262,1.587,0.387,2.373,0.387c3.141,0,6.066-1.988,7.114-5.13
	c1.31-3.93-0.814-8.177-4.743-9.487l-24.872-8.291V359.999H200z M130.001,180.001h50c6.893,0,12.5,5.607,12.5,12.5V255h-74.999
	v-62.5C117.501,185.608,123.108,180.001,130.001,180.001z M103.389,292.504c1.659-8.325,5.149-16.037,10.147-22.504H192.5v74.999
	H95.09c-0.037,0-0.074,0-0.112,0h-2.629C95.396,330.741,101.179,303.585,103.389,292.504z"/>
<g>
</g>
<g>
</g>
<g>
</g>
<g>
</g>
<g>
</g>
<g>
</g>
<g>
</g>
<g>
</g>
<g>
</g>
<g>
</g>
<g>
</g>
<g>
</g>
<g>
</g>
<g>
</g>
<g>
</g>
</svg>
