<?xml version="1.0" encoding="iso-8859-1"?>
<!-- Generator: Adobe Illustrator 19.0.0, SVG Export Plug-In . SVG Version: 6.00 Build 0)  -->
<svg version="1.1" id="Capa_1" xmlns="http://www.w3.org/2000/svg" xmlns:xlink="http://www.w3.org/1999/xlink" x="0px" y="0px"
	 viewBox="0 0 512 512" style="enable-background:new 0 0 512 512;" xml:space="preserve">
<path style="fill:#FF6337;" d="M84.305,350.129L55.094,488.396l-26.304,8.769c-3.988,1.329-6.143,5.641-4.815,9.628
	c1.33,3.988,5.64,6.141,9.628,4.814l30.442-10.149c2.656-0.885,4.491-3.094,5.034-5.648l36.885-174.556L84.305,350.129z"/>
<g>
	<path style="fill:#696969;" d="M473.943,319.683v184.706c0,4.204,3.407,7.611,7.611,7.611c4.205,0,7.612-3.408,7.612-7.611v-154.26
		L473.943,319.683z"/>
	<rect x="256.254" y="433.855" style="fill:#696969;" width="225.3" height="15.223"/>
	<path style="fill:#696969;" d="M248.642,350.129v154.26c0,4.204,3.407,7.611,7.611,7.611s7.612-3.408,7.612-7.611V319.683
		L248.642,350.129z"/>
</g>
<g>
	<path style="fill:#353535;" d="M279.088,329.832v30.446c0,4.204,3.407,7.611,7.611,7.611s7.612-3.408,7.612-7.611v-30.446H279.088z
		"/>
	<path style="fill:#353535;" d="M443.497,329.832v30.446c0,4.204,3.407,7.611,7.611,7.611s7.612-3.408,7.612-7.611v-30.446H443.497z
		"/>
</g>
<path style="fill:#FF4128;" d="M195.362,289.237v199.515l25.24,8.413c3.988,1.329,6.143,5.64,4.815,9.628
	c-1.329,3.988-5.642,6.144-9.628,4.815l-30.444-10.149c-3.108-1.036-5.204-3.945-5.204-7.221V289.237H195.362z"/>
<polygon style="fill:#353535;" points="489.166,319.683 397.828,274.014 458.72,350.129 489.166,350.129 "/>
<polygon style="fill:#4F4F4F;" points="458.72,350.129 248.642,350.129 248.642,319.683 458.72,258.791 "/>
<polygon style="fill:#FFE2A8;" points="458.72,319.683 367.382,175.064 458.72,30.446 489.166,30.446 489.166,319.683 "/>
<polygon style="fill:#FFF0D3;" points="248.642,319.683 248.642,30.446 458.72,30.446 458.72,289.237 399.349,319.683 "/>
<rect x="399.35" y="289.237" style="fill:#FF4128;" width="59.37" height="30.446"/>
<g>
	<path style="fill:#116F97;" d="M353.681,173.542c-4.205,0-7.611-3.408-7.611-7.611v-10.149c0-4.204,3.407-7.611,7.611-7.611
		s7.612,3.408,7.612,7.611v10.149C361.292,170.134,357.885,173.542,353.681,173.542z"/>
	<path style="fill:#116F97;" d="M384.127,173.542c-4.205,0-7.611-3.408-7.611-7.611v-10.149c0-4.204,3.407-7.611,7.611-7.611
		s7.612,3.408,7.612,7.611v10.149C391.738,170.134,388.331,173.542,384.127,173.542z"/>
	<path style="fill:#116F97;" d="M368.904,242.046c-36.934,0-66.981-30.047-66.981-66.981s30.047-66.981,66.981-66.981
		s66.981,30.047,66.981,66.981S405.838,242.046,368.904,242.046z M368.904,123.306c-28.539,0-51.758,23.218-51.758,51.758
		s23.219,51.758,51.758,51.758s51.758-23.218,51.758-51.758S397.443,123.306,368.904,123.306z"/>
	<path style="fill:#116F97;" d="M81.189,114.172c-4.205,0-7.611,3.408-7.611,7.611v35.52h15.223v-35.52
		C88.801,117.58,85.394,114.172,81.189,114.172z"/>
</g>
<path style="fill:#E18F4E;" d="M294.311,88.801c-4.205,0-7.612,3.408-7.612,7.611c0,46.167-37.56,83.726-83.726,83.726h-45.669
	v15.223h45.669c54.561,0,98.949-44.388,98.949-98.949C301.923,92.209,298.516,88.801,294.311,88.801z"/>
<path style="fill:#FFA754;" d="M45.669,180.139c-4.197,0-7.611-3.414-7.611-7.612c0-4.197,3.414-7.611,7.611-7.611h35.52
	c4.205,0,7.611-3.408,7.611-7.611c0-4.204-3.407-7.611-7.611-7.611h-35.52c-12.59,0-22.834,10.243-22.834,22.834
	c0,12.591,10.244,22.835,22.834,22.835h111.635v-15.223H45.669z"/>
<path style="fill:#FF4128;" d="M182.676,167.453H152.23v121.784l50.743-30.446V187.75
	C202.973,176.54,193.886,167.453,182.676,167.453z"/>
<path style="fill:#FF6337;" d="M152.23,167.453h-20.297c-11.21,0-20.297,9.087-20.297,20.297v101.487h60.892V187.75
	C172.527,176.54,163.44,167.453,152.23,167.453z"/>
<polygon style="fill:#49C9FF;" points="202.973,258.791 172.527,258.791 142.081,304.46 172.527,350.129 202.973,350.129 "/>
<path style="fill:#A8E5FF;" d="M111.635,258.791c-7.104,8.048-11.996,18.004-14.178,28.964
	c-3.116,15.629-13.153,62.374-13.153,62.374h88.222v-91.338H111.635z"/>
<path style="fill:#E18F4E;" d="M184.706,54.803h-27.401v82.204c25.219,0,45.669-20.45,45.669-45.669
	C202.973,76.399,195.798,63.125,184.706,54.803z"/>
<path style="fill:#FFA754;" d="M170.701,69.66c1.167,6.455,1.827,13.833,1.827,21.678c0,25.219-6.82,45.669-15.223,45.669
	c-25.219,0-45.669-20.45-45.669-45.669L170.701,69.66z"/>
<path style="fill:#60312C;" d="M184.706,54.803c-4.1,5.46-8.799,10.443-14.005,14.858l-13.396-23.991
	C167.575,45.669,177.074,49.069,184.706,54.803z"/>
<g>
	<path style="fill:#85453D;" d="M111.635,91.338c0-25.219,20.45-45.669,45.669-45.669c5.785,0,10.829,9.702,13.396,23.991
		C154.777,83.178,134.155,91.338,111.635,91.338z"/>
	<circle style="fill:#85453D;" cx="157.304" cy="22.834" r="22.834"/>
</g>
<g>
	<circle style="fill:#116F97;" cx="172.527" cy="319.683" r="7.611"/>
	<circle style="fill:#116F97;" cx="172.527" cy="289.237" r="7.611"/>
	<path style="fill:#116F97;" d="M368.904,211.092c-7.601,0-14.785-2.934-20.227-8.262c-3.004-2.941-3.055-7.76-0.114-10.764
		c2.94-3.003,7.759-3.056,10.764-0.115c2.58,2.526,5.982,3.916,9.577,3.916s6.997-1.391,9.577-3.916
		c3.007-2.941,7.826-2.888,10.764,0.115c2.94,3.004,2.89,7.823-0.114,10.764C383.688,208.158,376.505,211.092,368.904,211.092z"/>
</g>
<g>
</g>
<g>
</g>
<g>
</g>
<g>
</g>
<g>
</g>
<g>
</g>
<g>
</g>
<g>
</g>
<g>
</g>
<g>
</g>
<g>
</g>
<g>
</g>
<g>
</g>
<g>
</g>
<g>
</g>
</svg>
